<?xml version="1.0" encoding="UTF-8"?>
<svg version="1.1" xmlns="http://www.w3.org/2000/svg" width="500" height="500">
<path d="M0 0 C10.49983448 9.57879637 20.63822087 19.54289352 29.25 30.875 C29.66668945 31.41527832 30.08337891 31.95555664 30.51269531 32.51220703 C38.19567154 42.50680083 44.94114563 52.96593931 51.25 63.875 C51.64960938 64.56287598 52.04921875 65.25075195 52.4609375 65.95947266 C70.83868801 97.98948666 82.16768761 136.89027902 82.48828125 173.8671875 C82.4980751 174.80268936 82.50786896 175.73819122 82.51795959 176.70204163 C82.687259 197.07011869 82.66953017 216.88957514 78.25 236.875 C77.92854004 238.34984863 77.92854004 238.34984863 77.60058594 239.85449219 C69.29247754 276.77538731 52.85476889 311.31860134 29.25 340.875 C28.79077148 341.45137207 28.33154297 342.02774414 27.85839844 342.62158203 C15.62767544 357.79414797 1.70154545 372.13618192 -14.06396484 383.63330078 C-15.80193832 384.91325055 -17.50505627 386.23123438 -19.20703125 387.55859375 C-57.15055637 416.78508229 -107.11593227 434.7065659 -155.09375 435.11328125 C-156.0528125 435.1230751 -157.011875 435.13286896 -158 435.14295959 C-178.22924807 435.30713018 -197.93242685 435.43706922 -217.75 430.875 C-219.19922852 430.55354004 -219.19922852 430.55354004 -220.67773438 430.22558594 C-257.51162325 421.88515032 -292.30482275 405.57363109 -321.75 381.875 C-322.33410645 381.40658691 -322.91821289 380.93817383 -323.52001953 380.45556641 C-337.57620725 369.06732308 -350.73289861 356.23772019 -361.75 341.875 C-362.50925781 340.94429688 -363.26851563 340.01359375 -364.05078125 339.0546875 C-388.4802675 308.58601406 -404.53895183 271.38806661 -412 233.1875 C-412.15114258 232.41792969 -412.30228516 231.64835937 -412.45800781 230.85546875 C-415.23103492 215.68206533 -416.13141456 200.58179725 -416.0625 185.1875 C-416.05926727 183.87747513 -416.05926727 183.87747513 -416.05596924 182.54098511 C-415.81976311 122.67911676 -393.1087644 66.40386723 -354.04492188 21.36962891 C-352.88205521 20.02742119 -351.72941808 18.67636692 -350.578125 17.32421875 C-314.7007353 -23.88082844 -262.14688236 -50.82522917 -208.75 -60.125 C-207.84378906 -60.28726074 -206.93757812 -60.44952148 -206.00390625 -60.61669922 C-131.89389499 -73.34942988 -55.94852177 -49.23101833 0 0 Z M-321.75 11.875 C-322.636875 12.65746094 -323.52375 13.43992188 -324.4375 14.24609375 C-333.37860403 22.23569516 -341.3022815 30.46604896 -348.75 39.875 C-349.5440625 40.85210937 -350.338125 41.82921875 -351.15625 42.8359375 C-358.20153174 51.68713007 -364.11126658 61.07614344 -369.75 70.875 C-370.17812988 71.61459961 -370.60625977 72.35419922 -371.04736328 73.11621094 C-401.28975385 126.01421307 -407.447985 190.35772612 -391.75 248.875 C-384.72727341 273.54446555 -373.7927075 298.02841323 -358.75 318.875 C-357.70585937 320.3290625 -357.70585937 320.3290625 -356.640625 321.8125 C-342.94815525 340.45756519 -327.15512903 357.99071922 -308.40478516 371.66455078 C-306.75755869 372.86947093 -305.13428859 374.10199182 -303.51171875 375.33984375 C-275.97924222 396.02391281 -243.40053234 409.237138 -209.75 415.875 C-208.92000488 416.04016113 -208.09000977 416.20532227 -207.23486328 416.37548828 C-163.39081082 424.61595451 -115.47055947 418.53398366 -74.75 400.875 C-73.8832666 400.50004395 -73.0165332 400.12508789 -72.12353516 399.73876953 C-48.89777633 389.52726121 -28.83298393 375.45960351 -9.75 358.875 C-8.82703125 358.07707031 -7.9040625 357.27914063 -6.953125 356.45703125 C-2.47770748 352.51730765 1.66025793 348.49921736 5.49609375 343.93359375 C6.70158939 342.51868016 7.94671984 341.13689086 9.22265625 339.78515625 C40.42571193 306.65668515 59.50572453 260.67507867 65.25 215.875 C65.3442627 215.17141357 65.43852539 214.46782715 65.53564453 213.74291992 C72.5293705 154.47140511 55.74044427 92.10217137 19.25 44.875 C15.71546114 40.42330823 12.01776349 36.13002313 8.25 31.875 C7.44433594 30.95847656 6.63867188 30.04195313 5.80859375 29.09765625 C-33.80116146 -15.47169605 -91.29265452 -43.16189008 -150.75 -47.125 C-214.2452662 -49.52879996 -273.97441128 -30.61073585 -321.75 11.875 Z " fill="#000000" transform="translate(417.75,65.125)"/>
<path d="M0 0 C0.99 0 1.98 0 3 0 C3.4021875 1.0209375 3.4021875 1.0209375 3.8125 2.0625 C6.66889604 9.12832179 9.87266777 15.90463847 13.40820312 22.65429688 C16 27.68367622 16 27.68367622 16 31 C16.66 31 17.32 31 18 31 C18.23783203 30.19949219 18.23783203 30.19949219 18.48046875 29.3828125 C20.12231714 24.13978284 22.20939243 19.37113539 24.734375 14.49609375 C26.32668644 11.35570174 27.72455582 8.14795636 29.10546875 4.91015625 C30 3 30 3 32 0 C32.66 0 33.32 0 34 0 C35.74309956 6.68188163 33.84052098 10.8768902 31 17 C30.31032166 18.51984672 29.62273353 20.04064413 28.9375 21.5625 C28.63714844 22.20316406 28.33679688 22.84382813 28.02734375 23.50390625 C27.51880859 24.73947266 27.51880859 24.73947266 27 26 C26.6129187 26.91906128 26.6129187 26.91906128 26.21801758 27.85668945 C23.75477732 34.30734077 23.64404665 40.21638307 23.8125 47.0625 C23.82603516 48.11888672 23.83957031 49.17527344 23.85351562 50.26367188 C23.8885291 52.84299809 23.93763325 55.42121494 24 58 C26.93947273 54.20437016 29.86725052 50.40029604 32.78173828 46.58544922 C33.76952674 45.29993854 34.77134824 44.02521926 35.77734375 42.75390625 C37.79990179 40.12164955 38.95676519 38.40640725 39.3125 35.0625 C39.209375 34.381875 39.10625 33.70125 39 33 C37.68 32.34 36.36 31.68 35 31 C34.67 31.99 34.34 32.98 34 34 C33.34 34 32.68 34 32 34 C31.78082683 31.29686424 31.67148017 29.56041618 33.0625 27.1875 C36.09375543 25.32963377 38.53422859 25.62866735 42 26 C43.9375 27.5 43.9375 27.5 45 29 C47.46372555 25.30441167 47.29267282 23.15625732 47.4375 18.75 C47.68540181 13.22806975 48.27414879 8.85912608 51 4 C51.66 4 52.32 4 53 4 C53.25887315 7.14410737 53.47647183 10.28984823 53.6875 13.4375 C53.76033203 14.31599609 53.83316406 15.19449219 53.90820312 16.09960938 C54.78692004 30.10739083 47.30469577 39.89580535 38.9375 50.4375 C34.36115375 56.21542785 30.94941513 62.22431659 28 69 C27.63132812 69.82886719 27.26265625 70.65773438 26.8828125 71.51171875 C25.9398568 74.16951867 25.59947172 76.50660356 25.375 79.3125 C25.30023438 80.19550781 25.22546875 81.07851562 25.1484375 81.98828125 C25.07496094 82.98408203 25.07496094 82.98408203 25 84 C25.72316406 83.15115234 25.72316406 83.15115234 26.4609375 82.28515625 C27.09257812 81.55167969 27.72421875 80.81820312 28.375 80.0625 C29.00148438 79.33160156 29.62796875 78.60070312 30.2734375 77.84765625 C32.83651928 75.10481081 34.66396497 74.78443178 38.3125 74.625 C42.14506165 74.64968639 42.82418398 74.86081232 46 77.375 C49.13991576 81.49613944 49.34701602 83.79475973 49 89 C47.60393771 92.29978359 45.98626466 95.020603 44 98 C43.01 98 42.02 98 41 98 C41.165 97.21625 41.33 96.4325 41.5 95.625 C42.12960847 91.06033858 42.08180527 86.59927399 42 82 C39.69 82 37.38 82 35 82 C34.62875 82.7734375 34.62875 82.7734375 34.25 83.5625 C33 86 33 86 31.0625 89.0625 C27.21691596 95.75986546 25.52957043 103.3163171 26 111 C26 112.32 26 113.64 26 115 C27.25103516 114.22076172 27.25103516 114.22076172 28.52734375 113.42578125 C46.93524228 102 46.93524228 102 50 102 C50.33 101.34 50.66 100.68 51 100 C54 98 54 98 57 98 C57 97.34 57 96.68 57 96 C58.65002828 94.64613064 60.3174387 93.31321858 62 92 C63.76152241 88.47695518 63.52616545 84.80630323 63 81 C61.86537647 77.98491651 60.54848176 75.15825147 59.09375 72.28515625 C58 70 58 70 58 68 C57.34 68 56.68 68 56 68 C56.01740234 66.82630859 56.01740234 66.82630859 56.03515625 65.62890625 C56.04417969 64.61699219 56.05320312 63.60507813 56.0625 62.5625 C56.07990234 61.04849609 56.07990234 61.04849609 56.09765625 59.50390625 C56.28612676 57.05978933 56.28612676 57.05978933 55 56 C53.00041636 55.95919217 50.99954746 55.95745644 49 56 C48.67 56.66 48.34 57.32 48 58 C47.34 58 46.68 58 46 58 C45.67 60.64 45.34 63.28 45 66 C43 64.8125 43 64.8125 41 63 C40.22966297 59.53348335 41.18760418 57.33016366 42.8125 54.3125 C45 51 45 51 48 49 C49.9375 48.76953125 49.9375 48.76953125 52 48.8125 C52.680625 48.81894531 53.36125 48.82539063 54.0625 48.83203125 C56 49 56 49 59 50 C59.78688445 47.22276075 60.11949924 44.77389923 60.09765625 41.890625 C60.09443359 41.13652344 60.09121094 40.38242188 60.08789062 39.60546875 C60.07951172 38.82816406 60.07113281 38.05085938 60.0625 37.25 C60.05573242 36.06083984 60.05573242 36.06083984 60.04882812 34.84765625 C60.03708565 32.89840492 60.01915146 30.94919262 60 29 C63 30 63 30 64.6875 32.375 C66.77480591 38.13994012 66.96565968 44.11065465 65.01171875 49.95703125 C62.8969352 56.31771228 62.79905613 63.06048042 65.34375 69.2890625 C66.79736012 71.94258664 68.31061499 74.49106214 70 77 C72.2142079 74.30585355 72.2142079 74.30585355 71.9375 71.875 C72.09542027 64.61066756 75.84692085 58.01500154 79 51.625 C79.34417969 50.92270264 79.68835938 50.22040527 80.04296875 49.49682617 C83.15534631 43.32945924 83.15534631 43.32945924 86 41 C86.99 41 87.98 41 89 41 C88.57045619 42.3983022 88.13092966 43.79353907 87.6875 45.1875 C87.44386719 45.96480469 87.20023438 46.74210937 86.94921875 47.54296875 C86 50 86 50 84.4921875 52.3828125 C82.73061842 55.47247555 82.12052783 58.20210656 81.4375 61.6875 C81.18742188 62.92242187 80.93734375 64.15734375 80.6796875 65.4296875 C80.2746676 67.55720585 79.88013777 69.68682959 79.5078125 71.8203125 C78.18926744 79.19953838 75.34360017 85.34265322 72 92 C71.34 92 70.68 92 70 92 C69.6596875 92.8353125 69.6596875 92.8353125 69.3125 93.6875 C67.61382022 96.68041199 65.57927313 98.73527237 63 101 C62.01 101 61.02 101 60 101 C59.67 101.99 59.34 102.98 59 104 C57.390625 105.140625 57.390625 105.140625 55.25 106.25 C54.03957031 106.89388672 54.03957031 106.89388672 52.8046875 107.55078125 C50.79005559 108.59176793 48.77429589 109.63057308 46.7578125 110.66796875 C37.05051582 115.74580408 29.01963848 120.16540056 25.31640625 131 C24.83281212 132.65422543 24.40995798 134.32600493 24 136 C24.61746094 135.59007812 25.23492187 135.18015625 25.87109375 134.7578125 C37.34398278 127.45847062 45.9326223 127.7864005 59 130 C59.72832031 130.18304688 60.45664062 130.36609375 61.20703125 130.5546875 C66.39213299 131.84249055 70.79568058 131.64517112 75.5 129.125 C78.03939918 127.24775337 78.03939918 127.24775337 79 125 C79.06950541 123.45976004 79.08452357 121.91665012 79.0625 120.375 C79.05347656 119.55773437 79.04445313 118.74046875 79.03515625 117.8984375 C79.02355469 117.27195312 79.01195312 116.64546875 79 116 C76.92446352 115.4465236 75.15634036 115 73 115 C73 115.66 73 116.32 73 117 C72.01 117 71.02 117 70 117 C69.62321968 111.47388865 69.62321968 111.47388865 71.515625 109.09375 C73.34608429 106.511839 73.20924896 105.35287901 72.9375 102.25 C72.75790566 96.97148806 74.07247769 93.3592303 77 89 C77.66 88.34 78.32 87.68 79 87 C79.99 87 80.98 87 82 87 C81.67 88.11375 81.34 89.2275 81 90.375 C79.14679954 97.97580768 79.03171745 104.39330615 82.9296875 111.30859375 C83.92905518 112.88788647 84.96330388 114.44495581 86 116 C86.1953125 118.69921875 86.1953125 118.69921875 86.125 121.6875 C86.10695313 122.68136719 86.08890625 123.67523438 86.0703125 124.69921875 C86.04710937 125.45847656 86.02390625 126.21773438 86 127 C92.73822987 125.62485105 97.37226082 122.81022181 101.328125 117.07421875 C103.77304982 112.6406403 104.70512657 109.11216761 104 104 C102.61125395 99.8711272 100.94780473 95.89560945 99 92 C97.10466658 91.53476937 97.10466658 91.53476937 94.9375 91.375 C92.9884375 91.189375 92.9884375 91.189375 91 91 C90.67 93.97 90.34 96.94 90 100 C88.68 99.34 87.36 98.68 86 98 C85.70646563 94.94724259 85.58004023 92.04470835 86 89 C88.94499841 85.63428754 91.59544915 84.50337724 96 84 C95.96519531 83.3709375 95.93039062 82.741875 95.89453125 82.09375 C95.70066298 75.96381989 96.24094864 71.51810272 99 66 C101.1875 64.5 101.1875 64.5 103 64 C103 63.34 103 62.68 103 62 C105.76262553 62.3810518 106.84143894 62.83597132 108.8125 64.875 C109.4003125 65.926875 109.4003125 65.926875 110 67 C109.67 67.99 109.34 68.98 109 70 C108.21625 69.938125 107.4325 69.87625 106.625 69.8125 C105.75875 69.874375 104.8925 69.93625 104 70 C101.60074534 73.59888199 101.29554202 75.85152524 102 80 C103.4482782 84.42561505 105.21115451 88.70271679 107 93 C107.7731488 94.93657719 108.54424915 96.87397455 109.3125 98.8125 C109.87408783 100.20870058 110.43620608 101.60468879 111 103 C111.24234375 101.9378125 111.4846875 100.875625 111.734375 99.78125 C116.12054255 81.08534891 116.12054255 81.08534891 122 76 C122.66 76 123.32 76 124 76 C124 75.34 124 74.68 124 74 C127.37097383 72.50178941 129.20442119 72 133 72 C133 72.66 133 73.32 133 74 C131.55989912 74.93774011 130.1178544 75.8726913 128.6640625 76.7890625 C125.3942305 79.16851771 122.80698513 82.38602975 121 86 C120.72961539 88.0807859 120.48376872 90.16478299 120.25 92.25 C118.21259572 106.67423174 113.09556607 119.38528494 101.6875 128.875 C95.37385152 133.43789674 88.19155928 136.14148453 81 139 C81.33 139.99 81.66 140.98 82 142 C82.60714844 142.28875 83.21429688 142.5775 83.83984375 142.875 C86.72694323 144.37858888 87.80019702 146.28755157 89.5625 149 C91.63056299 152.16888048 92.81345774 153.87563849 96 156 C96 156.66 96 157.32 96 158 C104.44549781 160.95681651 104.44549781 160.95681651 112.875 159.6875 C115.0895931 158.17274837 115.0895931 158.17274837 116 156 C116.06950541 154.45976004 116.08452357 152.91665012 116.0625 151.375 C116.05347656 150.55773437 116.04445313 149.74046875 116.03515625 148.8984375 C116.02355469 148.27195313 116.01195312 147.64546875 116 147 C115.236875 146.855625 114.47375 146.71125 113.6875 146.5625 C111 146 111 146 108 145 C108.57344937 142.13275314 108.8614515 141.1385485 111 139 C114.125 139.375 114.125 139.375 117 140 C117.04125 139.05125 117.0825 138.1025 117.125 137.125 C117.88536831 131.8024218 120.70448229 127.17043392 124 123 C126.703125 121.203125 126.703125 121.203125 129 120 C129 123.50722636 127.79652536 125.26148088 125.97265625 128.18359375 C124.05577685 131.7633083 123.8738756 135.20052159 123.82421875 139.2109375 C123.80037109 140.20867187 123.77652344 141.20640625 123.75195312 142.234375 C123.70914892 144.32010739 123.67780913 146.40610806 123.65820312 148.4921875 C123.44985336 156.01216051 122.36631439 159.63368561 117 165 C124.87126919 163.7534329 124.87126919 163.7534329 131 159 C132.57759419 155.40370799 133.84246867 151.75066018 135 148 C135.99 148.66 136.98 149.32 138 150 C138.29296875 152.05859375 138.29296875 152.05859375 138.1875 154.4375 C138.16042969 155.21996094 138.13335937 156.00242187 138.10546875 156.80859375 C138.07066406 157.53175781 138.03585937 158.25492188 138 159 C138 159.99 138 160.98 138 162 C138.639375 162.391875 139.27875 162.78375 139.9375 163.1875 C142.6714881 165.5900956 142.94600743 167.44002331 143.234375 170.9921875 C143 173 143 173 140.8125 176 C138 178 138 178 134 178 C134.33 177.443125 134.66 176.88625 135 176.3125 C136.1309601 173.69715478 136.15662974 171.8193354 136 169 C129.75760299 167.19664086 126.29969457 168.95962906 120.59375 171.78125 C117.71672132 173.13310685 115.17979626 173.83693353 112 174 C111.34 173.67 110.68 173.34 110 173 C110.3403125 174.2684375 110.3403125 174.2684375 110.6875 175.5625 C111.08256246 179.90818701 110.10988687 182.21675458 108 186 C106.125 187.5 106.125 187.5 104 188 C101.25 187.625 101.25 187.625 99 187 C98.67 185.68 98.34 184.36 98 183 C99.98 182.67 101.96 182.34 104 182 C104.29773894 176.93843796 104.20012691 174.00015864 101 170 C99.16633133 168.34160848 97.28130462 166.7532289 95.390625 165.16015625 C92.49858898 162.54692762 89.874435 159.75351201 87.25 156.875 C86.79044922 156.37218506 86.33089844 155.86937012 85.85742188 155.35131836 C83.75208203 153.02265008 81.73649875 150.66454982 79.796875 148.1953125 C78.18685448 145.92306096 78.18685448 145.92306096 76 145 C76 144.34 76 143.68 76 143 C75.13375 142.71125 74.2675 142.4225 73.375 142.125 C71.31559996 141.43853332 69.25884849 140.74396584 67.20703125 140.03515625 C57.42705919 136.87840522 46.52650825 133.7493486 36.6484375 138.015625 C32.58571268 140.34984508 29.99173216 142.64308591 28 147 C29.010625 146.67 30.02125 146.34 31.0625 146 C39.63035314 143.61336355 46.98326725 145.80434438 54.6875 149.75 C62.69395327 154.69407713 66.12234342 162.76477885 70 171 C71.21522155 173.56943904 72.44735697 176.13001298 73.6875 178.6875 C74.24824219 179.86699219 74.80898438 181.04648437 75.38671875 182.26171875 C76.76501922 185.28659087 76.76501922 185.28659087 80 186 C80 186.66 80 187.32 80 188 C80.66 188 81.32 188 82 188 C82 187.34 82 186.68 82 186 C82.66 186 83.32 186 84 186 C84 185.01 84 184.02 84 183 C84.99 183.33 85.98 183.66 87 184 C86.25 189.75 86.25 189.75 84 192 C80.62949629 192.52870646 78.15948768 192.65704302 75.125 190.9375 C70.52975172 187.29299274 68.30223 183.34117359 66 178 C65.29875 178.825 64.5975 179.65 63.875 180.5 C61 183 61 183 57.875 183.5 C55 183 55 183 53.125 181.6875 C52 180 52 180 52 177 C53.134375 177.020625 54.26875 177.04125 55.4375 177.0625 C58.81575674 177.41577477 58.81575674 177.41577477 60 176 C60.5235733 169.99904449 60.82856399 164.94522849 57 160 C57 159.34 57 158.68 57 158 C56.2575 157.71125 55.515 157.4225 54.75 157.125 C52.43099801 156.17631737 50.23067324 155.13440221 48 154 C48.03480469 154.94101562 48.06960938 155.88203125 48.10546875 156.8515625 C48.13253906 158.09679687 48.15960938 159.34203125 48.1875 160.625 C48.22230469 161.85476563 48.25710938 163.08453125 48.29296875 164.3515625 C47.97602776 168.29853429 47.07512445 170.65367341 45 174 C44.34 174.33 43.68 174.66 43 175 C43 176.32 43 177.64 43 179 C43.66 179.33 44.32 179.66 45 180 C44.67 180.66 44.34 181.32 44 182 C40.83884224 180.63016497 40.0072908 180.0109362 38 177 C38.73423324 173.69595041 39.64316729 170.73348945 41.125 167.6875 C42.56946359 163.25093327 43.1326984 157.26539681 41 153 C39.56344146 152.91868537 38.1255517 152.86066441 36.6875 152.8125 C35.88699219 152.77769531 35.08648437 152.74289062 34.26171875 152.70703125 C31.49291259 153.0656849 30.81639042 153.97054325 29 156 C28.34 156 27.68 156 27 156 C26.26517816 161.77351492 25.85100093 167.43478816 25.85473633 173.25317383 C25.85137772 174.02571503 25.8480191 174.79825623 25.84455872 175.59420776 C25.8351209 178.13183241 25.83310698 180.66939016 25.83203125 183.20703125 C25.82880593 185.01364669 25.82544098 186.82026189 25.82194519 188.62687683 C25.81596601 192.42370198 25.81410326 196.22050446 25.81469727 200.01733398 C25.81477742 203.83248755 25.80801478 207.64751822 25.79418945 211.46264648 C25.71637989 233.22197732 26.00730027 254.86216352 27.43606472 276.57920742 C27.88412054 283.39985818 28.12861908 290.16499996 28 297 C28.66 297.33 29.32 297.66 30 298 C30.2734375 299.78515625 30.2734375 299.78515625 30.375 302.0625 C31.11566949 309.85187416 34.493425 315.15990594 40.13671875 320.46484375 C42.94286012 322.77682186 45.74204475 324.37102237 49 326 C49.78375 326.4125 50.5675 326.825 51.375 327.25 C54.68911987 328.19689139 57.68230913 328.1031571 61.109375 327.97265625 C63 328 63 328 64 329 C65.40950688 329.29509061 66.83026105 329.53705963 68.25390625 329.75390625 C69.10791016 329.88603516 69.96191406 330.01816406 70.84179688 330.15429688 C72.18854492 330.35635742 72.18854492 330.35635742 73.5625 330.5625 C74.46419922 330.70107422 75.36589844 330.83964844 76.29492188 330.98242188 C78.52941433 331.32528051 80.7644227 331.66430023 83 332 C83 332.66 83 333.32 83 334 C84.0209375 334.061875 84.0209375 334.061875 85.0625 334.125 C89.29229946 335.38494026 92.18041576 337.61499111 95 341 C96.08959398 344.57144694 96.6948763 346.6102474 95 350 C91.88291635 351.55854182 89.3141692 350.68784644 86 350 C85.375 347.125 85.375 347.125 85 344 C85.66 343.34 86.32 342.68 87 342 C80.30883089 338.93914605 74.36095182 337.31323199 67 337 C67.680625 337.86625 68.36125 338.7325 69.0625 339.625 C71 343 71 343 70.9375 346.25 C70 349 70 349 67 351 C63.8125 350.625 63.8125 350.625 61 350 C60.67 348.35 60.34 346.7 60 345 C61.32 345.33 62.64 345.66 64 346 C62.58759803 342.58669525 61.13455845 340.94850931 58 339 C54.96731113 338.21371974 54.96731113 338.21371974 51.75 337.8125 C50.13351562 337.57466797 50.13351562 337.57466797 48.484375 337.33203125 C47.66453125 337.22246094 46.8446875 337.11289062 46 337 C46.99 338.485 46.99 338.485 48 340 C48.55297409 343.5620149 48.6181267 346.86676772 46.875 350.0625 C44.03680106 351.48159947 41.99025324 350.78006606 39 350 C38 349 38 349 37.9375 346.4375 C37.958125 345.633125 37.97875 344.82875 38 344 C38.99 344.33 39.98 344.66 41 345 C41.33 344.34 41.66 343.68 42 343 C41.34 342.67 40.68 342.34 40 342 C38.233803 340.37509876 37.07898093 339.15796187 36 337 C33.71051742 336.56959776 33.71051742 336.56959776 31.0625 336.4375 C26.18760469 336.09380235 26.18760469 336.09380235 24 335 C15.42434445 334.53381392 6.258614 334.35593781 -2 337 C-2.33 337.66 -2.66 338.32 -3 339 C-3.66 339.639375 -4.32 340.27875 -5 340.9375 C-7.21548272 342.92411167 -7.21548272 342.92411167 -8 346 C-7.34 346 -6.68 346 -6 346 C-6 345.34 -6 344.68 -6 344 C-5.01 344 -4.02 344 -3 344 C-3.3125 346.375 -3.3125 346.375 -4 349 C-7 351 -7 351 -9.5625 350.8125 C-12 350 -12 350 -14 347 C-14.4516129 340.67741935 -14.4516129 340.67741935 -12 337 C-13.91924787 337.22934409 -15.8354406 337.48434343 -17.75 337.75 C-18.81734375 337.88921875 -19.8846875 338.0284375 -20.984375 338.171875 C-24.422232 339.11594972 -25.65316175 340.3994495 -28 343 C-28.66 343 -29.32 343 -30 343 C-29.34 343.66 -28.68 344.32 -28 345 C-27.01 345 -26.02 345 -25 345 C-25.625 347.4375 -25.625 347.4375 -27 350 C-29.9375 351 -29.9375 351 -33 351 C-35.1042673 349.62134211 -35.79277008 348.42926198 -36.875 346.1875 C-37.06293383 342.89865798 -35.61615759 340.79719583 -34 338 C-33.67 337.67 -33.34 337.34 -33 337 C-40.09075303 337.56275818 -46.59001053 338.79500527 -53 342 C-53 342.66 -53 343.32 -53 344 C-52.34 344 -51.68 344 -51 344 C-50.8125 346.375 -50.8125 346.375 -51 349 C-54 351 -54 351 -57.1875 350.625 C-58.5796875 350.315625 -58.5796875 350.315625 -60 350 C-60.495 348.515 -60.495 348.515 -61 347 C-61.66 346.67 -62.32 346.34 -63 346 C-59.1538875 338.59267223 -54.99616551 334.81635714 -47 332 C-44.10418113 331.30658307 -41.19211937 330.82684381 -38.25 330.375 C-32.55595851 329.49486265 -32.55595851 329.49486265 -27 328 C-25.783125 328.061875 -24.56625 328.12375 -23.3125 328.1875 C-19.07682675 328.27362275 -16.29210496 326.95642675 -12.6640625 324.875 C-11 324 -11 324 -9 324 C-9 323.34 -9 322.68 -9 322 C-8.01 322 -7.02 322 -6 322 C-5.67 321.01 -5.34 320.02 -5 319 C-4.34 319 -3.68 319 -3 319 C-2.67 318.01 -2.34 317.02 -2 316 C-1.34 316 -0.68 316 0 316 C0.12503906 315.43667969 0.25007813 314.87335938 0.37890625 314.29296875 C1 312 1 312 1.90234375 309.86328125 C10.06396421 289.75181649 7.54021254 264.37963809 8 243 C8.03287109 241.47732513 8.03287109 241.47732513 8.06640625 239.92388916 C8.24248454 231.67862605 8.40520322 223.4331409 8.5625 215.1875 C8.58482697 214.041745 8.60715393 212.89598999 8.63015747 211.71551514 C8.75958876 204.96805586 8.86489275 198.22077494 8.94854736 191.47259521 C9.00273642 187.81531622 9.08544232 184.15919306 9.16748047 180.50244141 C9.20516697 178.06023756 9.24181975 175.61801751 9.27734375 173.17578125 C9.3092128 172.04335495 9.34108185 170.91092865 9.37391663 169.7441864 C9.43631325 163.50669002 9.29847747 159.68243417 5 155 C0.91569792 152.27713194 -1.14590877 152.61475466 -6 153 C-8.69119802 157.03679703 -8.5643567 160.25613205 -8 165 C-7.01642648 167.00812926 -6.01691264 169.00854609 -5 171 C-4.43171043 175.29923414 -4.53063387 178.2959508 -7 182 C-7.99 182 -8.98 182 -10 182 C-9.938125 180.7625 -9.87625 179.525 -9.8125 178.25 C-9.79929129 174.50533015 -10.4068042 172.80065146 -13 170 C-14.14077657 166.57767028 -14.09815117 163.91326783 -14.0625 160.3125 C-14.05347656 159.13300781 -14.04445313 157.95351563 -14.03515625 156.73828125 C-14.02355469 155.83464844 -14.01195312 154.93101562 -14 154 C-21.77408863 158.43098447 -21.77408863 158.43098447 -26 166 C-26.53113734 171.66501179 -26.53113734 171.66501179 -25 177 C-22.69 177 -20.38 177 -18 177 C-18.33 178.65 -18.66 180.3 -19 182 C-22.1875 182.8125 -22.1875 182.8125 -26 183 C-28.9375 180.5625 -28.9375 180.5625 -31 178 C-31.33773437 178.5775 -31.67546875 179.155 -32.0234375 179.75 C-32.46945313 180.4925 -32.91546875 181.235 -33.375 182 C-33.81585938 182.7425 -34.25671875 183.485 -34.7109375 184.25 C-35.13632813 184.8275 -35.56171875 185.405 -36 186 C-36.66 186 -37.32 186 -38 186 C-38.268125 186.61875 -38.53625 187.2375 -38.8125 187.875 C-40 190 -40 190 -43 192 C-46.4375 192.375 -46.4375 192.375 -50 192 C-52.4375 190 -52.4375 190 -54 188 C-53.34 186.35 -52.68 184.7 -52 183 C-51.34 183 -50.68 183 -50 183 C-49.34 184.65 -48.68 186.3 -48 188 C-41.00699526 184.66999774 -39.1049488 178.77778611 -36 172 C-34.62643427 169.09305751 -33.22333145 166.20149952 -31.8125 163.3125 C-31.47943848 162.60512695 -31.14637695 161.89775391 -30.80322266 161.16894531 C-29.94466578 159.40693971 -28.97941916 157.6977991 -28 156 C-27.01 155.67 -26.02 155.34 -25 155 C-25 154.34 -25 153.68 -25 153 C-19.10969143 148.22407413 -11.77323516 145.37732352 -4.25 144.625 C-0.61367281 145.04457621 2.52438843 145.86510643 6 147 C4.12050295 143.42895561 2.82946843 141.45255699 -1 140 C-1 139.34 -1 138.68 -1 138 C-12.38970796 135.01051049 -26.81227955 135.35890635 -37.30859375 141.30859375 C-38.91280003 142.48590106 -40.46298385 143.73623117 -42 145 C-42.66 145 -43.32 145 -44 145 C-44.66 146.32 -45.32 147.64 -46 149 C-46.66 149 -47.32 149 -48 149 C-48.4640625 149.928125 -48.4640625 149.928125 -48.9375 150.875 C-49.625 152.25 -50.3125 153.625 -51 155 C-51.66 155 -52.32 155 -53 155 C-53.21785156 155.54398438 -53.43570313 156.08796875 -53.66015625 156.6484375 C-55.44794609 159.7861911 -57.87431985 162.12531454 -60.4375 164.625 C-61.17323242 165.35976563 -61.17323242 165.35976563 -61.92382812 166.109375 C-64.18887562 168.3469118 -66.34167499 170.22778332 -69 172 C-69.58348752 174.6556728 -69.58348752 174.6556728 -69.6875 177.625 C-69.75324219 178.62789062 -69.81898438 179.63078125 -69.88671875 180.6640625 C-69.94279297 181.82035156 -69.94279297 181.82035156 -70 183 C-68.02 183 -66.04 183 -64 183 C-63.67 183.66 -63.34 184.32 -63 185 C-64.1875 186.5625 -64.1875 186.5625 -66 188 C-69.49783891 188 -71.34999095 186.79259796 -74.375 185 C-77 182 -77 182 -77.15625 179.66796875 C-76.89870071 177.39652713 -76.53251803 175.22205252 -76 173 C-77.093125 173.103125 -78.18625 173.20625 -79.3125 173.3125 C-84.31511237 173.35700723 -88.02090084 171.36827163 -92.38671875 169.09375 C-95.19462917 167.91854086 -96.99022659 167.63082847 -100 168 C-100.99 168.99 -100.99 168.99 -102 170 C-101.63723355 172.82957829 -100.90305236 175.29084291 -100 178 C-102.875 177.6875 -102.875 177.6875 -106 177 C-108.02350324 173.96474514 -108.32124018 172.80573798 -108.625 169.3125 C-108.69976562 168.50425781 -108.77453125 167.69601562 -108.8515625 166.86328125 C-108.90054688 166.24839844 -108.94953125 165.63351562 -109 165 C-108.36578125 164.71382812 -107.7315625 164.42765625 -107.078125 164.1328125 C-104.58438799 162.77344458 -104.03567876 161.58919691 -103 159 C-103.66 159 -104.32 159 -105 159 C-105.35233161 153.62694301 -105.35233161 153.62694301 -105 151 C-103 149 -103 149 -101 148 C-100.319375 149.5778125 -100.319375 149.5778125 -99.625 151.1875 C-99.20347656 152.1465625 -99.20347656 152.1465625 -98.7734375 153.125 C-98 155 -98 155 -97.25 157.6875 C-95.39322753 161.12252907 -92.49367385 162.55334416 -89 164 C-85.72687532 164.78453346 -85.72687532 164.78453346 -83 165 C-83.78375 164.278125 -84.5675 163.55625 -85.375 162.8125 C-88.74110066 159.20596358 -90.03359555 156.81415986 -89.94140625 151.8359375 C-89.81636719 150.69382812 -89.69132812 149.55171875 -89.5625 148.375 C-89.01875097 142.23193057 -88.64490488 136.06846946 -90 130 C-90.66 129.67 -91.32 129.34 -92 129 C-92.625 126.4375 -92.625 126.4375 -93 124 C-93.66 124 -94.32 124 -95 124 C-95 122.68 -95 121.36 -95 120 C-89.95021566 122.26369643 -87.814518 124.98227439 -85.4375 129.9375 C-84.81681641 131.21947266 -84.81681641 131.21947266 -84.18359375 132.52734375 C-83.79300781 133.34332031 -83.40242188 134.15929687 -83 135 C-82.33603557 136.33468103 -81.67037121 137.66852538 -81 139 C-79.68 139 -78.36 139 -77 139 C-74.75 140.875 -74.75 140.875 -73 143 C-73 143.66 -73 144.32 -73 145 C-76.07617188 145.29296875 -76.07617188 145.29296875 -79.15234375 145.5859375 C-79.76207031 145.72257813 -80.37179688 145.85921875 -81 146 C-82.53214888 149.06429776 -82.22938548 151.6165642 -82 155 C-81.24300635 157.92836371 -81.24300635 157.92836371 -79 160 C-76.04194783 161.00699648 -73.09005163 161.56596759 -70 162 C-69.67 161.34 -69.34 160.68 -69 160 C-67.68 160 -66.36 160 -65 160 C-64.67 159.01 -64.34 158.02 -64 157 C-63.360625 156.690625 -62.72125 156.38125 -62.0625 156.0625 C-59.46448035 154.72412624 -59.25903911 153.59213934 -58 151 C-56.3545622 149.31237149 -54.68711423 147.6459651 -53 146 C-52.443125 145.236875 -51.88625 144.47375 -51.3125 143.6875 C-50.879375 143.130625 -50.44625 142.57375 -50 142 C-49.34 142 -48.68 142 -48 142 C-47.67 140.68 -47.34 139.36 -47 138 C-48.05058594 137.64808594 -49.10117188 137.29617187 -50.18359375 136.93359375 C-63.13322273 132.44681655 -71.95152095 127.24421503 -79 115 C-79.72881089 113.02179902 -80.42771172 111.02902207 -81 109 C-81.66 108.67 -82.32 108.34 -83 108 C-84.89650999 101.12515129 -85.65180584 94.13374743 -86.4375 87.0625 C-86.623125 86.051875 -86.80875 85.04125 -87 84 C-87.66 83.67 -88.32 83.34 -89 83 C-89.33 82.01 -89.66 81.02 -90 80 C-93.05508026 76.96722801 -93.05508026 76.96722801 -97 76 C-97 75.34 -97 74.68 -97 74 C-97.66 74 -98.32 74 -99 74 C-99 73.34 -99 72.68 -99 72 C-92.84962603 72.12813279 -90.00868247 74.21411973 -85.50390625 78.30859375 C-84 80 -84 80 -84 82 C-83.34 82.33 -82.68 82.66 -82 83 C-79.72723775 88.09098744 -78.61700568 92.56758908 -78.2109375 98.1171875 C-78.0997218 100.08793191 -78.0997218 100.08793191 -77 102 C-75.86830299 99.64885408 -74.74458619 97.29440665 -73.625 94.9375 C-73.30789062 94.28072266 -72.99078125 93.62394531 -72.6640625 92.94726562 C-69.83502493 86.96502993 -67.69091151 81.28172993 -67.875 74.5625 C-67.89304688 73.69753906 -67.91109375 72.83257812 -67.9296875 71.94140625 C-67.95289063 71.30074219 -67.97609375 70.66007812 -68 70 C-70.31 70 -72.62 70 -75 70 C-75 66 -75 66 -73 63.75 C-72.34 63.1725 -71.68 62.595 -71 62 C-66.90747043 64.21217815 -63.85150198 66.24719908 -62.4296875 70.84375 C-61.97291381 73.13592341 -61.86709566 75.22676722 -61.875 77.5625 C-61.87113281 78.70912109 -61.87113281 78.70912109 -61.8671875 79.87890625 C-62 82 -62 82 -63 85 C-62.113125 84.9175 -61.22625 84.835 -60.3125 84.75 C-56.27533282 85.05469186 -54.86135289 86.22040005 -52 89 C-50.60064987 91.79870027 -50.74734595 93.90498792 -51 97 C-52.375 98.875 -52.375 98.875 -54 100 C-54.66 100 -55.32 100 -56 100 C-56.495 95.545 -56.495 95.545 -57 91 C-61.455 91.495 -61.455 91.495 -66 92 C-69.22526182 100.06315454 -70.46864282 107.81079536 -68.0625 116.3125 C-64.4506062 121.01890708 -59.66744141 125.11085286 -54 127 C-53.84144531 126.23816406 -53.68289062 125.47632813 -53.51953125 124.69140625 C-52.35085708 119.5195388 -51.29668721 115.11291398 -48.3125 110.6875 C-44.62356128 104.72334757 -45.60009589 97.74504931 -46 91 C-46.99 90.505 -46.99 90.505 -48 90 C-48 89.01 -48 88.02 -48 87 C-44.72085432 87.56536994 -43.06619192 88.3703012 -41 91 C-38.77628488 95.69359798 -38.64390059 99.94135279 -38.44140625 105.0625 C-37.94823379 108.34449724 -36.76428108 110.22960187 -35 113 C-35.3125 115.3125 -35.3125 115.3125 -36 117 C-36.556875 116.649375 -37.11375 116.29875 -37.6875 115.9375 C-40.53886783 114.78154007 -42.08517222 115.19032562 -45 116 C-45.38932267 123.00833025 -45.38932267 123.00833025 -42 129 C-35.32615903 133.03831141 -27.64328907 131.0146707 -20.4375 129.4375 C-10.26278394 127.29222854 -3.35470093 128.52527844 6 133 C7.485 133.99 7.485 133.99 9 135 C8.87625 133.700625 8.7525 132.40125 8.625 131.0625 C8.52058594 129.96615234 8.52058594 129.96615234 8.4140625 128.84765625 C8.27742188 128.23792969 8.14078125 127.62820312 8 127 C7.34 126.67 6.68 126.34 6 126 C5.649375 125.29875 5.29875 124.5975 4.9375 123.875 C0.50496303 117.29768708 -6.32266532 113.72131421 -13.25 110.1875 C-23.35063855 105.00041052 -34.46806243 98.30607547 -40 88 C-40 87.34 -40 86.68 -40 86 C-40.66 85.67 -41.32 85.34 -42 85 C-42 84.34 -42 83.68 -42 83 C-42.66 82.67 -43.32 82.34 -44 82 C-44.6009651 79.53003345 -45.08291662 77.12693358 -45.5 74.625 C-45.62890625 73.90199707 -45.7578125 73.17899414 -45.890625 72.43408203 C-46.46588439 69.19465259 -47.00783856 65.95135482 -47.53125 62.703125 C-48.57761796 56.39003831 -50.22771568 51.72172235 -53.75 46.3125 C-54.36875 45.1678125 -54.36875 45.1678125 -55 44 C-54.67 43.01 -54.34 42.02 -54 41 C-53.01 41 -52.02 41 -51 41 C-42.44557664 51.61249593 -38.54485912 64.81300273 -36 78 C-29.43090323 67.17250561 -29.43090323 67.17250561 -29 55 C-29.74830078 53.6078125 -29.74830078 53.6078125 -30.51171875 52.1875 C-33.20332117 46.42280821 -33.34680925 38.78955151 -31.203125 32.7578125 C-30.1875 31.125 -30.1875 31.125 -28 29 C-27.01 29 -26.02 29 -25 29 C-25 35.6 -25 42.2 -25 49 C-21.85045191 49.04019209 -21.85045191 49.04019209 -18.125 48.6875 C-14.52015411 48.66758372 -14.08302497 48.93287343 -11.0625 51.375 C-7.54495897 55.8518704 -7.9102132 58.43321855 -8 64 C-9.485 64.495 -9.485 64.495 -11 65 C-11.99 61.04 -11.99 61.04 -13 57 C-17.48133574 56.27743171 -17.48133574 56.27743171 -22 56 C-22.01417969 56.75023437 -22.02835937 57.50046875 -22.04296875 58.2734375 C-22.35862175 65.04718021 -23.46397899 69.94880057 -26.84375 75.84375 C-29.15205445 80.14842587 -29.34052689 84.14749179 -29 89 C-27.18131773 93.97106488 -23.29279612 96.01137584 -18.9609375 98.66796875 C-17 100 -17 100 -16 102 C-13.66836622 102.67258667 -11.3347961 103.33847444 -9 104 C-4.26470588 106.47058824 -4.26470588 106.47058824 -3 109 C-2.113125 109.28875 -1.22625 109.5775 -0.3125 109.875 C3.27446606 111.09321489 5.92992109 112.80708649 9 115 C9.2980757 109.53527889 8.74813048 105.48969355 6.8515625 100.3671875 C5.9478519 97.85503784 5.25831093 95.32679433 4.5625 92.75 C3.35091386 88.75487238 2.2468215 85.79587407 -1 83 C-4.64182335 82.10944264 -4.64182335 82.10944264 -8 82 C-8.09688221 87.44693314 -8.12862175 92.63904667 -7 98 C-11.42865213 96.19044322 -13.03474728 93.58664124 -15.21484375 89.453125 C-16.3307997 85.96645665 -15.61962107 83.96935643 -14.125 80.7265625 C-12.43871741 78.13858714 -10.76942994 76.38471497 -8 75 C-0.69565217 74.76811594 -0.69565217 74.76811594 3 76 C4.82421875 78.06640625 4.82421875 78.06640625 6.6875 80.5625 C7.31011719 81.38878906 7.93273437 82.21507812 8.57421875 83.06640625 C9.04472656 83.70449219 9.51523438 84.34257812 10 85 C9.73400293 70.10416411 0.37143256 54.37143256 -10 44 C-17.42598532 33.84356882 -20.37718881 25.7449447 -19.5625 13.1875 C-19.51029297 12.30384766 -19.45808594 11.42019531 -19.40429688 10.50976562 C-19.27525381 8.33949592 -19.13840044 6.16969307 -19 4 C-18.01 4 -17.02 4 -16 4 C-13.74190046 12.0098625 -12.42741229 19.6875679 -12 28 C-11.34 28 -10.68 28 -10 28 C-9.34 27.34 -8.68 26.68 -8 26 C-6.125 25.69921875 -6.125 25.69921875 -4 25.6875 C-3.29875 25.67074219 -2.5975 25.65398437 -1.875 25.63671875 C-1.25625 25.75660156 -0.6375 25.87648437 0 26 C2.1519437 29.22791555 2.20086443 30.28400809 2 34 C1.34 34 0.68 34 0 34 C-0.33 33.34 -0.66 32.68 -1 32 C-1.99 32 -2.98 32 -4 32 C-5.14304162 34.55656407 -5.14304162 34.55656407 -5 38 C-3.00355839 41.2889356 -0.53414314 44.11448408 2 47 C6 51.82051282 6 51.82051282 6 54 C6.66 54 7.32 54 8 54 C8 54.66 8 55.32 8 56 C8.66 56 9.32 56 10 56 C11.37316985 48.10427336 11.99754165 40.58201711 9 33 C8.43428171 30.42283891 7.97704986 27.85574197 7.5625 25.25 C7.376875 24.5075 7.19125 23.765 7 23 C6.34 22.67 5.68 22.34 5 22 C4.31875294 20.00491933 3.65572791 18.00361307 3 16 C2.30536728 14.68019784 1.59628627 13.36792655 0.875 12.0625 C-1.08434978 8.27490934 -1.43831208 5.29545834 -1 1 C-0.67 0.67 -0.34 0.34 0 0 Z M-52 126 C-51 128 -51 128 -51 128 Z " fill="#010101" transform="translate(233,107)"/>
<path d="M0 0 C0.66 0 1.32 0 2 0 C2 1.98 2 3.96 2 6 C3.32 6.33 4.64 6.66 6 7 C6 8.65 6 10.3 6 12 C8.97 12.495 8.97 12.495 12 13 C12 13.66 12 14.32 12 15 C10.35 15.33 8.7 15.66 7 16 C7 17.65 7 19.3 7 21 C6.01 21 5.02 21 4 21 C3.71125 22.134375 3.4225 23.26875 3.125 24.4375 C2.75375 25.613125 2.3825 26.78875 2 28 C1.34 28.33 0.68 28.66 0 29 C-0.33 27.35 -0.66 25.7 -1 24 C-1.66 24 -2.32 24 -3 24 C-5.18857448 22.26737854 -5.99534051 21.01223117 -7 18.375 C-7.495 17.199375 -7.495 17.199375 -8 16 C-8.99 15.67 -9.98 15.34 -11 15 C-11 14.34 -11 13.68 -11 13 C-10.34 13 -9.68 13 -9 13 C-9 12.34 -9 11.68 -9 11 C-8.34 11 -7.68 11 -7 11 C-6.7525 10.236875 -6.505 9.47375 -6.25 8.6875 C-4.86932227 5.71904289 -3.61249013 4.85402525 -1 3 C-0.67 2.01 -0.34 1.02 0 0 Z M-3 21 C-2.34 21.66 -1.68 22.32 -1 23 C-1 22.34 -1 21.68 -1 21 C-1.66 21 -2.32 21 -3 21 Z " fill="#020202" transform="translate(170,117)"/>
<path d="M0 0 C0.66 0 1.32 0 2 0 C2 1.65 2 3.3 2 5 C4.475 5.99 4.475 5.99 7 7 C7 8.65 7 10.3 7 12 C9.475 12.495 9.475 12.495 12 13 C11 16 11 16 8.9375 17.1875 C8.298125 17.455625 7.65875 17.72375 7 18 C7 18.99 7 19.98 7 21 C6.01 21 5.02 21 4 21 C3.01 23.64 2.02 26.28 1 29 C-0.9451 26.08235 -1.45276317 24.37462715 -2 21 C-2.99 21 -3.98 21 -5 21 C-5.33 19.35 -5.66 17.7 -6 16 C-7.32 15.67 -8.64 15.34 -10 15 C-10 14.34 -10 13.68 -10 13 C-9.360625 12.525625 -8.72125 12.05125 -8.0625 11.5625 C-5.71627037 10.0908635 -5.71627037 10.0908635 -5 7 C-3.68 7 -2.36 7 -1 7 C-0.67 4.69 -0.34 2.38 0 0 Z " fill="#020202" transform="translate(378,163)"/>
<path d="M0 0 C0.66 0 1.32 0 2 0 C2.33 2.31 2.66 4.62 3 7 C3.99 6.67 4.98 6.34 6 6 C8 9 8 9 8 11 C10.46326712 12.6446674 10.46326712 12.6446674 13 14 C11 16 11 16 8 17 C8 18.32 8 19.64 8 21 C6.68 21 5.36 21 4 21 C3.34 23.64 2.68 26.28 2 29 C1.34 28.67 0.68 28.34 0 28 C0 26.35 0 24.7 0 23 C-0.66 23 -1.32 23 -2 23 C-2 22.34 -2 21.68 -2 21 C-2.66 21 -3.32 21 -4 21 C-4 20.01 -4 19.02 -4 18 C-4.66 18 -5.32 18 -6 18 C-6 17.34 -6 16.68 -6 16 C-7.32 15.67 -8.64 15.34 -10 15 C-10 14.34 -10 13.68 -10 13 C-8.35 12.67 -6.7 12.34 -5 12 C-4.731875 11.030625 -4.46375 10.06125 -4.1875 9.0625 C-3.795625 8.051875 -3.40375 7.04125 -3 6 C-2.01 5.67 -1.02 5.34 0 5 C0 3.35 0 1.7 0 0 Z " fill="#020202" transform="translate(120,163)"/>
<path d="M0 0 C0.99 0.33 1.98 0.66 3 1 C3.33 3.31 3.66 5.62 4 8 C5.32 8.33 6.64 8.66 8 9 C7.67 9.66 7.34 10.32 7 11 C7.66 11 8.32 11 9 11 C9 11.66 9 12.32 9 13 C10.32 13.33 11.64 13.66 13 14 C12.67 14.66 12.34 15.32 12 16 C11.01 16 10.02 16 9 16 C8.67 17.65 8.34 19.3 8 21 C6.35 21 4.7 21 3 21 C3 23.31 3 25.62 3 28 C2.01 28.33 1.02 28.66 0 29 C-0.0825 28.278125 -0.165 27.55625 -0.25 26.8125 C-1.15114559 23.43320404 -2.73166763 21.62275931 -5 19 C-5.33 18.34 -5.66 17.68 -6 17 C-8.01669827 15.86649466 -8.01669827 15.86649466 -10 15 C-9.67 14.34 -9.34 13.68 -9 13 C-8.01 13 -7.02 13 -6 13 C-5.9175 12.2575 -5.835 11.515 -5.75 10.75 C-4.85157947 7.4557914 -3.41475201 6.33929101 -1 4 C-0.2127322 1.8618034 -0.2127322 1.8618034 0 0 Z " fill="#020202" transform="translate(281,73)"/>
<path d="M0 0 C0.66 0 1.32 0 2 0 C2.268125 0.928125 2.53625 1.85625 2.8125 2.8125 C3.946683 5.85688595 4.69684158 6.89711622 7 9 C7.33 9.99 7.66 10.98 8 12 C10.00016466 13.20882096 10.00016466 13.20882096 12 14 C12 14.66 12 15.32 12 16 C10.02 16.33 8.04 16.66 6 17 C6 18.32 6 19.64 6 21 C5.01 21 4.02 21 3 21 C2.67 23.64 2.34 26.28 2 29 C1.34 29 0.68 29 0 29 C-0.2475 27.88625 -0.495 26.7725 -0.75 25.625 C-1.58449544 21.95123876 -1.58449544 21.95123876 -4.0625 20.75 C-4.701875 20.5025 -5.34125 20.255 -6 20 C-6.33 19.01 -6.66 18.02 -7 17 C-9.00016466 15.79117904 -9.00016466 15.79117904 -11 15 C-10.67 14.34 -10.34 13.68 -10 13 C-9.01 13 -8.02 13 -7 13 C-6.67 11.35 -6.34 9.7 -6 8 C-4.68 8 -3.36 8 -2 8 C-1.34 5.36 -0.68 2.72 0 0 Z " fill="#030303" transform="translate(217,73)"/>
<path d="M0 0 C0.66 0 1.32 0 2 0 C2.66 2.31 3.32 4.62 4 7 C4.99 7 5.98 7 7 7 C6.67 8.65 6.34 10.3 6 12 C8.475 12.495 8.475 12.495 11 13 C11.33 13.99 11.66 14.98 12 16 C10.02 16.33 8.04 16.66 6 17 C6.33 18.65 6.66 20.3 7 22 C6.01 21.67 5.02 21.34 4 21 C3.34 23.64 2.68 26.28 2 29 C1.34 29 0.68 29 0 29 C-0.33 27.02 -0.66 25.04 -1 23 C-2.32 22.67 -3.64 22.34 -5 22 C-4.67 20.35 -4.34 18.7 -4 17 C-5.98 16.67 -7.96 16.34 -10 16 C-8.25 11.125 -8.25 11.125 -6 10 C-4.86649466 7.98330173 -4.86649466 7.98330173 -4 6 C-3.01 6 -2.02 6 -1 6 C-0.67 4.02 -0.34 2.04 0 0 Z " fill="#020202" transform="translate(249,43)"/>
<path d="M0 0 C0.99 0 1.98 0 3 0 C3.33 2.31 3.66 4.62 4 7 C5.32 7 6.64 7 8 7 C7.67 8.65 7.34 10.3 7 12 C9.97 12.495 9.97 12.495 13 13 C13 13.66 13 14.32 13 15 C11.35 15.66 9.7 16.32 8 17 C8 18.32 8 19.64 8 21 C6.68 21 5.36 21 4 21 C3.67 23.31 3.34 25.62 3 28 C2.01 28 1.02 28 0 28 C0 25.36 0 22.72 0 20 C-0.33 20.66 -0.66 21.32 -1 22 C-1.99 21.67 -2.98 21.34 -4 21 C-4.33 19.35 -4.66 17.7 -5 16 C-6.32 15.67 -7.64 15.34 -9 15 C-9 14.34 -9 13.68 -9 13 C-8.34 13 -7.68 13 -7 13 C-5.85773284 10.71546567 -4.93746527 8.37491201 -4 6 C-3.01 6 -2.02 6 -1 6 C-0.67 4.02 -0.34 2.04 0 0 Z M-4 10 C-3 12 -3 12 -3 12 Z " fill="#020202" transform="translate(328,117)"/>
<path d="M0 0 C0.33 0 0.66 0 1 0 C1 1.65 1 3.3 1 5 C0.67 5 0.34 5 0 5 C0 3.35 0 1.7 0 0 Z " fill="#000000" transform="translate(241,215)"/>
<path d="" fill="#000000" transform="translate(0,0)"/>
<path d="" fill="#000000" transform="translate(0,0)"/>
<path d="" fill="#000000" transform="translate(0,0)"/>
<path d="" fill="#000000" transform="translate(0,0)"/>
<path d="" fill="#000000" transform="translate(0,0)"/>
<path d="" fill="#000000" transform="translate(0,0)"/>
<path d="" fill="#000000" transform="translate(0,0)"/>
<path d="" fill="#000000" transform="translate(0,0)"/>
<path d="" fill="#000000" transform="translate(0,0)"/>
<path d="" fill="#000000" transform="translate(0,0)"/>
<path d="" fill="#000000" transform="translate(0,0)"/>
<path d="" fill="#000000" transform="translate(0,0)"/>
<path d="" fill="#000000" transform="translate(0,0)"/>
<path d="" fill="#000000" transform="translate(0,0)"/>
<path d="" fill="#000000" transform="translate(0,0)"/>
<path d="" fill="#000000" transform="translate(0,0)"/>
<path d="" fill="#000000" transform="translate(0,0)"/>
<path d="" fill="#000000" transform="translate(0,0)"/>
<path d="" fill="#000000" transform="translate(0,0)"/>
<path d="" fill="#000000" transform="translate(0,0)"/>
<path d="" fill="#000000" transform="translate(0,0)"/>
<path d="" fill="#000000" transform="translate(0,0)"/>
<path d="" fill="#000000" transform="translate(0,0)"/>
<path d="" fill="#000000" transform="translate(0,0)"/>
<path d="" fill="#000000" transform="translate(0,0)"/>
<path d="" fill="#000000" transform="translate(0,0)"/>
<path d="" fill="#000000" transform="translate(0,0)"/>
<path d="" fill="#000000" transform="translate(0,0)"/>
<path d="" fill="#000000" transform="translate(0,0)"/>
<path d="" fill="#000000" transform="translate(0,0)"/>
<path d="" fill="#000000" transform="translate(0,0)"/>
<path d="" fill="#000000" transform="translate(0,0)"/>
<path d="" fill="#000000" transform="translate(0,0)"/>
<path d="" fill="#000000" transform="translate(0,0)"/>
<path d="" fill="#000000" transform="translate(0,0)"/>
<path d="" fill="#000000" transform="translate(0,0)"/>
<path d="" fill="#000000" transform="translate(0,0)"/>
<path d="" fill="#000000" transform="translate(0,0)"/>
<path d="" fill="#000000" transform="translate(0,0)"/>
<path d="" fill="#000000" transform="translate(0,0)"/>
<path d="" fill="#000000" transform="translate(0,0)"/>
<path d="" fill="#000000" transform="translate(0,0)"/>
<path d="" fill="#000000" transform="translate(0,0)"/>
<path d="" fill="#000000" transform="translate(0,0)"/>
<path d="" fill="#000000" transform="translate(0,0)"/>
<path d="" fill="#000000" transform="translate(0,0)"/>
<path d="" fill="#000000" transform="translate(0,0)"/>
</svg>
